REM MD5 78627c220f9f4fca390f21a9bbfa404e
FILE "World Cup Golf - Professional Edition (USA).bin" BINARY
  TRACK 01 MODE2/2352
    INDEX 01 00:00:00
  TRACK 02 AUDIO
    INDEX 00 56:59:68
    INDEX 01 57:01:68
  TRACK 03 AUDIO
    INDEX 00 59:49:17
    INDEX 01 59:51:17
REM LEADOUT 62:53:39
